#!OML:ASF H:\LiuWeirdWalks\Patient Classification 1\Patient 1\Session 1\male.ASF
:FULLY-SPECIFIED
:DEGREES
1060
root 2.87433 17.897 19.7919 3.04363 2.86251 2.17346
lowerback 9.54883 -0.300184 -4.39169
upperback 2.73867 -0.731665 2.64577
thorax -2.40871 -0.359448 5.32362
lowerneck -24.3516 0.860595 3.68038
upperneck 31.6769 1.7789 -5.65549
head 15.2751 0.362494 -2.66543
rclavicle -1.35174e-014 0
rhumerus -26.7645 -32.3272 -0.334227
rradius 31.8674
rwrist -4.34188
rhand -23.9396 -7.04652
rfingers 7.12502
rthumb 2.53566 -37.0112
lclavicle -1.35174e-014 0
lhumerus -19.6875 -9.57914 22.4223
lradius 31.9779
lwrist 34.3347
lhand -27.0221 3.00723
lfingers 7.12502
lthumb -0.441466 32.9865
rfemur -27.1168 -0.731858 10.0482
rtibia 24.4746
rfoot -4.42745 -16.8245
rtoes -9.4527
lfemur 10.7936 -4.87061 -22.3806
ltibia 13.8995
lfoot -8.40552 13.4606
ltoes -18.9839
1061
root 2.84033 17.9031 19.8893 3.13597 2.98015 2.12046
lowerback 9.47142 -0.313109 -4.1678
upperback 2.7022 -0.722285 2.73301
thorax -2.40739 -0.35443 5.2855
lowerneck -24.5034 0.859708 3.67683
upperneck 31.7787 1.82714 -5.78338
head 15.3621 0.362168 -2.71509
rclavicle -2.88238e-014 -1.59028e-015
rhumerus -26.9016 -32.5528 -0.241452
rradius 31.8194
rwrist -4.20394
rhand -23.9064 -6.99375
rfingers 7.12502
rthumb 2.56776 -36.958
lclavicle -2.88238e-014 -1.59028e-015
lhumerus -19.8397 -11.1832 22.428
lradius 32.3055
lwrist 35.4933
lhand -27.1658 2.92251
lfingers 7.12502
lthumb -0.580227 32.9015
rfemur -26.8997 -0.149778 10.0701
rtibia 24.3843
rfoot -3.61756 -16.6682
rtoes -9.63526
lfemur 10.9481 -5.02533 -22.1696
ltibia 13.9773
lfoot -8.13616 13.2435
ltoes -19.5167
1062
root 2.80694 17.9121 19.9867 3.22755 3.07009 2.02147
lowerback 9.4061 -0.3244 -3.893
upperback 2.62802 -0.706164 2.83531
thorax -2.4533 -0.344119 5.23415
lowerneck -24.5155 0.871722 3.72324
upperneck 31.8404 1.895 -5.96386
head 15.4018 0.369983 -2.7893
rclavicle 1.21259e-014 -1.03368e-014
rhumerus -27.0378 -32.4577 -0.231396
rradius 31.8926
rwrist -4.35836
rhand -23.9449 -7.06344
rfingers 7.12502
rthumb 2.53058 -37.0282
lclavicle 1.21259e-014 -1.03368e-014
lhumerus -19.9619 -12.0743 22.4149
lradius 32.5323
lwrist 36.1751
lhand -27.29 2.81236
lfingers 7.12502
lthumb -0.700219 32.791
rfemur -26.7345 0.440488 10.1234
rtibia 24.2869
rfoot -2.67031 -16.5004
rtoes -9.78147
lfemur 11.0717 -5.18201 -21.9188
ltibia 14.1023
lfoot -7.83353 13.0387
ltoes -20.1007
1063
root 2.77468 17.9225 20.0848 3.31542 3.12408 1.88554
lowerback 9.3384 -0.401099 -3.63439
upperback 2.52795 -0.778468 2.93937
thorax -2.51403 -0.377198 5.20399
lowerneck -24.3673 0.989536 3.97838
upperneck 31.8291 2.07286 -6.25935
head 15.3837 0.434626 -2.92298
rclavicle 2.26615e-014 -8.74653e-015
rhumerus -26.9458 -32.2693 -0.493779
rradius 31.9638
rwrist -4.43257
rhand -23.9442 -7.02733
rfingers 7.12502
rthumb 2.53129 -36.9921
lclavicle 2.26615e-014 -8.74653e-015
lhumerus -20.0633 -11.2792 22.2473
lradius 32.4613
lwrist 35.8197
lhand -27.3968 2.72929
lfingers 7.12502
lthumb -0.803365 32.7075
rfemur -26.6088 0.96093 10.2286
rtibia 24.214
rfoot -1.68699 -16.2703
rtoes -9.82109
lfemur 11.147 -5.32543 -21.6393
ltibia 14.3265
lfoot -7.52783 12.855
ltoes -20.7196
1064
root 2.74476 17.9327 20.1832 3.4072 3.15996 1.76374
lowerback 9.2584 -0.562396 -3.43166
upperback 2.40134 -0.968738 3.02506
thorax -2.58162 -0.4685 5.19949
lowerneck -24.0417 1.20857 4.41953
upperneck 31.7669 2.3507 -6.62611
head 15.3147 0.556275 -3.09624
rclavicle 3.97569e-016 1.27222e-014
rhumerus -26.554 -32.0308 -1.09149
rradius 32.0103
rwrist -4.55569
rhand -23.9992 -6.988
rfingers 7.12502
rthumb 2.47811 -36.9534
lclavicle 3.97569e-016 1.27222e-014
lhumerus -20.2402 -9.0197 21.888
lradius 32.1831
lwrist 34.5814
lhand -27.4923 2.61329
lfingers 7.12502
lthumb -0.895608 32.5912
rfemur -26.5163 1.2988 10.3559
rtibia 24.2073
rfoot -0.784093 -15.9274
rtoes -9.67996
lfemur 11.1569 -5.4588 -21.3887
ltibia 14.6706
lfoot -7.2197 12.6813
ltoes -21.3041
1065
root 2.7155 17.9419 20.2824 3.50063 3.16069 1.64233
lowerback 9.14298 -0.780774 -3.26838
upperback 2.2654 -1.23849 3.09493
thorax -2.63032 -0.599845 5.20857
lowerneck -23.5678 1.50292 5.01847
upperneck 31.6483 2.69782 -7.04497
head 15.1987 0.72168 -3.30244
rclavicle -2.18663e-015 1.59028e-015
rhumerus -25.9359 -31.925 -1.90476
rradius 31.9531
rwrist -4.48446
rhand -24.0546 -6.90649
rfingers 7.12502
rthumb 2.42462 -36.8725
lclavicle -2.18663e-015 1.59028e-015
lhumerus -20.5405 -5.8486 21.3258
lradius 31.8703
lwrist 32.7939
lhand -27.5651 2.51595
lfingers 7.12502
lthumb -0.965902 32.4935
rfemur -26.4509 1.51841 10.5244
rtibia 24.2966
rfoot -0.0565614 -15.5589
rtoes -9.28477
lfemur 11.1044 -5.56288 -21.143
ltibia 15.1369
lfoot -6.91283 12.5127
ltoes -21.8732
